<svg width="142" height="30" viewBox="0 0 142 30" fill="none" xmlns="http://www.w3.org/2000/svg">
<path d="M9.74849 24.6154C3.87477 24.6154 0 21.5306 0 15.7595V8.82454C0 3.05345 3.90627 0 9.64826 0C12.3202 0 14.8891 0.796799 16.7935 2.1229C17.1286 2.3221 17.1601 2.58675 16.9596 2.88555L14.8576 6.0699C14.6227 6.40285 14.3564 6.43415 14.0242 6.23495C12.7899 5.43815 11.2205 5.03975 9.75136 5.03975C6.94766 5.03975 5.44415 6.6305 5.44415 9.0209V15.5233C5.44415 18.0759 7.0479 19.5358 9.78286 19.5358C11.4525 19.5358 13.0877 19.0378 14.4223 18.1414C14.7573 17.908 15.0237 17.9422 15.2241 18.2751L17.3606 21.4595C17.561 21.7583 17.561 22.0229 17.3262 22.188C15.3902 23.6194 12.8529 24.6154 9.74849 24.6154Z" fill="#EB0800"/>
<path d="M26.052 6.15385C30.7251 6.15385 33.469 8.5842 33.469 13.7146V22.9626C33.469 23.3012 33.2991 23.5365 32.9594 23.6369C30.9612 24.2452 28.2863 24.6154 25.9829 24.6154C21.1055 24.6154 18.0218 22.7933 18.0218 18.8078C18.0218 15.2985 20.8003 13.5425 25.4071 13.5425C26.458 13.5425 27.4398 13.6429 28.2863 13.7433V13.4047C28.2863 11.6171 27.6414 10.6358 25.4416 10.6358C23.9502 10.6358 22.1909 11.0404 21.2062 11.5798C20.901 11.7491 20.5642 11.7147 20.3943 11.379L19.0065 8.74489C18.8366 8.4063 18.8366 8.17102 19.0727 8.00172C20.6649 6.99744 23.1382 6.15385 26.052 6.15385ZM26.0405 20.3056C26.8006 20.3056 27.6903 20.1736 28.2863 20.0445V17.1493C27.627 17.0173 26.7344 16.9513 26.0088 16.9513C24.192 16.9513 23.4002 17.5453 23.4002 18.5954C23.4002 19.7461 24.4569 20.3056 26.0405 20.3056Z" fill="#EB0800"/>
<path d="M36.8901 23.5897C36.5641 23.5897 36.301 23.3278 36.301 23.0031V8.1785C36.301 7.88519 36.4326 7.65738 36.7328 7.49222C38.5603 6.60946 40.6851 6.15385 42.8442 6.15385C43.8395 6.15385 44.869 6.28484 46.0672 6.48132C46.4333 6.54682 46.5992 6.7433 46.5992 7.1021V10.1063C46.5992 10.4993 46.3704 10.6929 45.9757 10.6274C45.3208 10.5306 44.5973 10.4964 43.9424 10.4964C42.9586 10.4964 42.0721 10.6588 41.4515 10.9207V23.0003C41.4515 23.3933 41.2542 23.5869 40.8939 23.5869H36.8901V23.5897Z" fill="#EB0800"/>
<path d="M82.803 23.1533C83.0337 23.5512 82.8344 23.8462 82.4071 23.8462H77.8389C77.5427 23.8462 77.312 23.7144 77.181 23.4167L74.7829 18.6923L72.4162 23.4167C72.2852 23.6801 72.0203 23.8462 71.7269 23.8462H67.1586C66.7314 23.8462 66.5663 23.5484 66.7628 23.1533L71.5276 15.1906L67.0248 7.35957C66.7941 6.96158 66.9935 6.66667 67.4178 6.66667H71.8551C72.1855 6.66667 72.4133 6.79838 72.5443 7.09615L74.7801 11.9866L77.0158 7.09615C77.1468 6.79838 77.4117 6.66667 77.705 6.66667H82.1423C82.6008 6.66667 82.766 6.96445 82.5353 7.35957L78.0325 15.1906L82.803 23.1533Z" fill="#11111A"/>
<path d="M92.4947 6.41311C97.0166 6.41311 100.15 9.16668 100.15 13.856V17.1443C100.15 21.5477 97.3096 24.3013 93.2244 24.3013C92.1707 24.3013 91.0859 24.0754 90.2886 23.7494V29.411C90.2886 29.8056 90.0914 30 89.7251 30H85.7976C85.4765 30 85.2173 29.7369 85.2173 29.411V8.28028C85.2173 7.95145 85.3469 7.75702 85.637 7.65694C87.6064 6.90207 90.2886 6.41026 92.4862 6.41026L92.4947 6.41311ZM95.0782 17.1357V13.7245C95.0782 11.6543 94.0583 10.7851 92.2805 10.7851C91.4578 10.7851 90.6352 10.9195 90.0069 11.1511V19.5033C90.6323 19.8721 91.424 20.0723 92.3115 20.0723C94.0893 20.0723 95.0782 19.1716 95.0782 17.2329" fill="#11111A"/>
<path d="M117.614 16.6958C117.614 17.0616 117.417 17.2619 117.024 17.2619H107.878V17.7932C107.878 19.4915 108.984 20.3566 110.756 20.3566C112.428 20.3566 113.803 19.8573 115.006 19.1576C115.306 18.9254 115.575 18.9921 115.776 19.2912L117.517 21.5875C117.717 21.8865 117.717 22.1855 117.417 22.4178C115.71 23.7154 113.534 24.6154 110.59 24.6154C106.24 24.6154 102.724 22.3191 102.724 17.6916V13.4995C102.724 8.5382 106.16 6.41026 110.315 6.41026C114.341 6.41026 117.614 8.47434 117.614 13.4995V16.6958ZM110.455 10.4484C108.915 10.4484 107.878 11.2468 107.878 13.0786V13.7782H113.033V13.0786C113.033 11.2816 111.962 10.4484 110.455 10.4484Z" fill="#11111A"/>
<path d="M121.081 23.5897C120.754 23.5897 120.488 23.3278 120.488 23.0003V8.1785C120.488 7.88519 120.62 7.65738 120.92 7.49222C122.748 6.60946 124.874 6.15385 127.034 6.15385C128.029 6.15385 129.059 6.28484 130.255 6.48132C130.621 6.54682 130.787 6.7433 130.787 7.1021V10.1063C130.787 10.4993 130.558 10.6929 130.163 10.6274C129.508 10.5306 128.787 10.4964 128.129 10.4964C127.145 10.4964 126.261 10.6588 125.638 10.9207V23.0003C125.638 23.3933 125.44 23.5869 125.08 23.5869H121.081V23.5897Z" fill="#11111A"/>
<path d="M140.205 19.828C140.496 19.828 140.885 19.7966 141.241 19.7623C141.662 19.6967 141.857 19.8593 141.857 20.2531V23.7766C141.857 24.1132 141.727 24.3814 141.405 24.4471C140.857 24.5469 140.145 24.6154 139.371 24.6154C135.623 24.6154 133.104 22.5013 133.104 18.2046V3.13472C133.104 2.76667 133.299 2.5641 133.686 2.5641H137.047C137.403 2.5641 137.595 2.73243 137.629 3.10048L138.016 7.129H140.713C141.035 7.129 141.295 7.39148 141.295 7.71673V10.8522C141.295 11.1604 141.049 11.4086 140.744 11.4086H137.906V17.4057C137.906 19.0091 138.651 19.8251 140.075 19.8251" fill="#11111A"/>
<path d="M63.0087 14.1026C63.396 14.1026 63.5911 13.9064 63.5911 13.5487V10.0381C63.5911 9.68045 63.396 9.48718 63.0087 9.48718H57.8755L55.0952 14.1026H63.0087Z" fill="#11111A"/>
<path d="M64.5742 19.0392H55.0249V14.5512V5.0944H63.9984C64.3832 5.0944 64.5742 4.89519 64.5742 4.52807V0.842661C64.5742 0.518231 64.3158 0.256411 63.9956 0.256411H50.2672C49.947 0.256411 49.6886 0.518231 49.6886 0.842661V23.0035C49.6886 23.3279 49.947 23.5897 50.2672 23.5897H64.5517C64.9084 23.5897 65.1359 23.3934 65.1359 23.0035V19.6197C65.1359 19.2612 64.9112 19.0648 64.5573 19.0648" fill="#11111A"/>
</svg>
